<svg width="238" height="209" viewBox="0 0 238 209" fill="none" xmlns="http://www.w3.org/2000/svg">
<path fill-rule="evenodd" clip-rule="evenodd" d="M114.56 171.826C75.0198 201.056 28.069 204.661 8.53845 179.512C-11.4478 153.776 4.84899 107.675 44.9383 76.5418C79.8451 49.4332 121.281 42.6113 144.605 58.2899C157.824 61.8246 171.504 67.9985 184.531 76.7864C226.61 105.172 245.95 150.082 227.728 177.095C209.505 204.108 160.621 202.995 118.541 174.61C117.191 173.698 115.863 172.77 114.56 171.826Z" fill="url(#paint0_linear_0_1)"/>
<path d="M183.477 2.81088C184.311 5.52528 185.093 14.4515 184.52 14.4515C184.311 14.4515 183.061 13.7207 181.81 12.8333C180.507 11.9459 179.308 11.3195 179.152 11.4761C178.996 11.6327 179.621 12.8333 180.507 14.0861C183.165 17.9489 184.363 21.6029 184.051 24.8393C183.738 27.5537 183.894 27.8669 187.178 33.7133C197.653 52.3487 195.933 48.0161 202.968 74.7425C206.46 87.9491 209.639 100.268 210.056 102.147C211.828 109.769 212.349 111.021 213.652 111.021C214.329 111.021 215.476 110.813 216.206 110.552L217.456 110.03L210.212 81.4241C206.2 65.7119 201.196 44.9885 199.06 35.4359L195.151 18.0011L191.712 12.4679C187.386 5.47308 183.79 0.357483 183.165 0.357483C182.904 0.357483 183.061 1.45368 183.477 2.81088Z" fill="#606280"/>
<path d="M56.4217 27.2403C55.9527 28.9629 50.5328 48.1203 44.279 69.7833C38.0773 91.4463 32.0841 112.326 30.9897 116.137C29.8953 119.947 28.9051 123.236 28.7488 123.34C28.5924 123.497 27.498 123.132 26.2994 122.505C23.7458 121.2 23.0161 121.566 23.2767 124.123C23.4331 125.846 23.4852 125.898 26.56 126.264C28.6967 126.577 30.5207 127.203 32.6053 128.508C36.2533 130.753 38.5985 130.909 40.7873 129.03C42.6113 127.516 43.393 124.959 42.455 123.81C41.6211 122.818 39.6929 122.818 37.8689 123.758C37.0871 124.123 35.9406 124.645 35.2631 124.854C34.2208 125.167 34.1166 125.063 34.3772 123.967C34.4814 123.288 35.5758 118.642 36.7745 113.631C38.859 104.914 40.1619 99.3807 42.455 89.6193C43.0282 87.1659 44.0705 82.7289 44.748 79.7013C45.4255 76.6737 48.6045 63.2061 51.8356 49.7385C55.0146 36.3231 57.5161 25.0479 57.4119 24.7347C57.3077 24.4215 56.8908 25.5699 56.4217 27.2403Z" fill="#606280"/>
<path d="M104.556 68.2653C103.344 70.8612 98.3473 75.7125 97.0005 76.7941C114.374 69.6553 136.879 73.9439 144.96 78L143.95 68.2653L147.485 64.2092V57.7194L149 52.8521H147.485C142.233 52.8521 139.236 43.6582 138.394 39.0613C130.819 32.5715 120.213 43.1174 113.647 47.1735C107.081 51.2296 106.071 65.0204 104.556 68.2653Z" fill="#606280"/>
<path d="M111.611 106.168C109.631 106.69 111.142 107.577 113.904 107.525C116.875 107.525 118.542 107.055 118.542 106.272C118.542 105.803 113.331 105.698 111.611 106.168Z" fill="#606280"/>
<path d="M153.876 121.566C154.137 126.63 154.658 128.613 156.691 131.589C158.671 134.616 159.192 137.696 158.619 142.603C158.046 147.144 154.71 154.296 149.134 162.752C143.662 171.156 143.036 172.566 142.515 177.681C141.994 182.588 140.796 185.511 138.138 188.278C134.646 191.984 133.604 192.663 130.164 193.55C127.089 194.333 126.881 194.437 128.549 194.49C131.988 194.594 145.538 197.1 151.114 198.718C154.085 199.605 159.557 201.38 163.205 202.685C175.504 207.07 178.422 207.644 190.461 207.957C199.998 208.218 201.874 208.114 207.919 207.07C223.033 204.46 229.234 201.171 231.58 194.49C232.153 192.976 232.778 191.723 233.039 191.775C233.247 191.827 233.664 192.558 233.925 193.446C234.185 194.333 234.55 195.064 234.811 195.064C235.436 195.064 237.885 191.932 237.885 191.097C237.885 190.627 237.26 187.912 236.53 184.989C235.228 179.874 235.175 178.986 235.071 163.744C234.967 150.015 234.811 146.831 233.768 140.515C233.143 136.495 232.413 132.998 232.153 132.737C231.944 132.528 231.475 133.677 231.11 135.347C230.016 140.828 228.401 146.518 227.931 146.518C227.202 146.518 226.576 144.743 224.596 137.487C223.658 133.781 222.72 130.649 222.616 130.545C222.512 130.388 221.261 130.545 219.906 130.858C216.935 131.536 215.997 131.275 215.997 129.814C215.997 127.882 214.173 128.613 213.131 130.962C211.672 134.251 207.867 137.8 204.219 139.21C201.926 140.097 199.998 140.41 196.454 140.463C190.252 140.515 187.438 139.21 182.07 133.677C177.12 128.613 172.377 124.75 167.791 122.088C163.882 119.844 158.046 117.808 155.336 117.808H153.668L153.876 121.566Z" fill="#606280"/>
<path d="M63.0922 123.341C59.3921 124.228 57.4117 125.429 52.6692 129.553C45.1126 136.13 44.4872 136.547 40.735 137.748C36.5658 139.053 36.0967 139.418 36.5658 141.193C36.8785 142.446 35.8362 145.474 35.1066 145.474C34.846 145.474 34.6375 145.943 34.6375 146.57C34.6375 147.196 33.96 148.345 33.0741 149.128C31.7191 150.433 31.5106 150.955 31.5106 153.565C31.5106 155.183 31.1458 157.166 30.7289 158.002C29.9993 159.463 27.602 161.134 26.2991 161.134C25.5695 161.134 25.6738 158.785 26.5076 155.496L27.2372 152.729L25.8822 152.207C25.1005 151.894 23.7455 151.529 22.8596 151.372L21.244 151.111L20.5665 154.556C20.2017 156.436 19.7848 158.002 19.5763 158.002C19.3679 158.002 18.951 160.037 18.6383 162.543C18.3256 165.101 17.5439 169.329 16.8664 172.043C15.4593 178.099 15.772 180.291 18.3256 181.492C19.6285 182.118 20.0975 182.692 20.3581 184.102C20.5144 185.093 21.1919 188.852 21.9215 192.401C22.599 195.951 23.1723 199.396 23.1723 199.97C23.1723 201.902 24.0061 202.424 29.2697 203.938C37.1911 206.13 42.7153 206.756 53.6594 206.809C64.6035 206.809 65.6458 206.6 78.6224 202.319C82.1141 201.171 87.4819 199.501 90.6088 198.665C96.1851 197.099 109.37 194.594 112.497 194.489C113.435 194.437 112.758 194.176 110.725 193.811C106.869 193.132 99.6768 189.374 95.7682 185.981C91.8596 182.588 91.2342 180.5 91.1821 171.313C91.1821 161.76 90.9215 161.134 84.8762 156.958L80.7591 154.034L80.6028 151.216C80.4986 149.545 80.9155 146.309 81.5408 143.438C82.8958 137.539 82.6874 135.295 80.1859 129.866C79.1957 127.726 78.414 125.377 78.414 124.594C78.414 123.289 78.2055 123.132 76.0167 122.819C72.1602 122.297 66.4276 122.506 63.0922 123.341Z" fill="#606280"/>
<path d="M111.5 99.1499C110.7 99.5499 107.834 102.65 106.5 104.15L102 86.6504L105 82.1504L107 76.6503C113 71.8503 124.834 74.6503 130 76.6503L129.5 91.1503L131 95.1503L125.5 102.649C123.5 98.6494 120 98.3161 118.5 98.6494C117.834 99.1496 116.2 100.15 115 100.15C113.5 100.15 112.5 98.6499 111.5 99.1499Z" fill="#D9D9D9"/>
<path d="M112.55 72.7594C107.911 73.177 97.749 75.1606 90.2445 77.0398C84.564 78.5014 80.7075 79.18 76.7467 79.3888C69.138 79.8064 65.3857 81.3724 63.5617 84.922C60.3306 91.3426 65.073 102.618 72.0564 104.967C73.4114 105.437 75.7044 105.959 77.2158 106.167C79.8736 106.481 89.2022 105.489 90.3487 104.81C90.6614 104.601 91.391 102.096 91.9643 99.277C93.1629 93.274 95.8208 84.4522 97.1757 81.79C99.4167 77.4052 103.013 76.1002 114.113 75.6826C125.057 75.265 128.757 76.3612 135.167 81.7378C138.815 84.8176 141.734 89.359 143.037 94.0048C144.6 99.4336 146.685 105.228 148.092 107.994C149.186 110.239 149.551 110.552 152.313 111.387C161.694 114.154 168.312 110.135 168.26 101.626C168.26 94.4224 165.394 89.359 158.515 84.1912C153.72 80.6416 148.874 78.2926 138.815 74.743C134.334 73.1248 120.106 72.0808 112.55 72.7594Z" fill="#454966"/>
<defs>
<linearGradient id="paint0_linear_0_1" x1="19" y1="89.5" x2="223" y2="197" gradientUnits="userSpaceOnUse">
<stop stop-color="#CED4DA"/>
<stop offset="1" stop-color="white"/>
</linearGradient>
</defs>
</svg>
